<?xml version="1.0" encoding="iso-8859-1"?>
<!-- Generator: Adobe Illustrator 19.0.0, SVG Export Plug-In . SVG Version: 6.00 Build 0)  -->
<svg version="1.1" id="Capa_1" xmlns="http://www.w3.org/2000/svg" xmlns:xlink="http://www.w3.org/1999/xlink" x="0px" y="0px"
	 viewBox="0 0 511.999 511.999" style="enable-background:new 0 0 511.999 511.999;" xml:space="preserve">
<g>
	<g>
		<path d="M510.484,235.169l-91-186.74C416.971,43.271,411.736,40,406,40H106c-5.737,0-10.971,3.272-13.484,8.429l-91,186.74
			c-2.128,4.368-2.009,9.496,0.319,13.76c2.328,4.264,6.578,7.137,11.403,7.707c12.776,1.511,25.266,1.735,37.762,0.759V457
			c0,8.284,6.716,15,15,15c19.746,0,367.064,0,380,0c8.284,0,15-6.716,15-15V257.401c12.514,0.977,25.155,0.725,37.762-0.766
			c4.825-0.57,9.075-3.443,11.403-7.707C512.492,244.664,512.612,239.536,510.484,235.169z M305.711,70l43.321,122.978
			c-43.083,46.925-143.453,46.409-186.064,0L206.289,70H305.711z M38.408,227.945L115.376,70h59.106l-41.838,118.768
			C111.308,215.802,72.988,227.44,38.408,227.945z M181,442H81v-45h100V442z M301,442h-90V322h90V442z M431,442H331v-45h100V442z
			 M431,367H331v-60c0-8.284-6.716-15-15-15H196c-8.284,0-15,6.716-15,15v60H81V252.62c23.774-5.827,47.125-16.933,65.004-34.069
			c54.999,52.676,165.079,52.593,219.992,0c17.723,16.986,40.974,28.179,65.004,34.069V367z M379.355,188.766L337.517,70h59.106
			l76.969,157.946C439.136,227.438,400.772,215.903,379.355,188.766z"/>
	</g>
</g>
<g>
</g>
<g>
</g>
<g>
</g>
<g>
</g>
<g>
</g>
<g>
</g>
<g>
</g>
<g>
</g>
<g>
</g>
<g>
</g>
<g>
</g>
<g>
</g>
<g>
</g>
<g>
</g>
<g>
</g>
</svg>
